<svg xmlns="http://www.w3.org/2000/svg" viewBox="0 0 257.95 45.25"><defs><style>.cls-1{fill:#190a08;}</style></defs><g id="レイヤー_2" data-name="レイヤー 2"><g id="レイヤー_1-2" data-name="レイヤー 1"><g id="Text"><path class="cls-1" d="M13.83,43.43a4.53,4.53,0,0,1-1.55-1.12,3.48,3.48,0,0,1-1-1.42c-.26-1-.54-2.23-.85-3.68s-.63-3-1-4.66-.61-3.34-.91-5.07-.56-3.38-.82-5-.48-3-.64-4.25-.27-2.26-.33-3,.27-1.26.82-1.37a2.54,2.54,0,0,1,2.8,1.41c.25.91.54,1.93.85,3.08s.62,2.41.93,3.76a13.33,13.33,0,0,0,3.23-1.76,11.74,11.74,0,0,0,2.36-2.31,9,9,0,0,0,1.33-2.57,4.79,4.79,0,0,0,.09-2.6,3.16,3.16,0,0,0-2.12-2.09,10.8,10.8,0,0,0-3.94-.65A12.77,12.77,0,0,0,7.8,11.3,20.7,20.7,0,0,0,3.47,14a2.26,2.26,0,0,1-2,.43A2,2,0,0,1,0,13.06a4.16,4.16,0,0,1,.36-1.81,5.32,5.32,0,0,1,1-1.37A12.86,12.86,0,0,1,6.84,6.45a22.56,22.56,0,0,1,6.73-1,17.27,17.27,0,0,1,5.53.85,9.9,9.9,0,0,1,4.59,3.2,6.39,6.39,0,0,1,1,3.15,9.44,9.44,0,0,1-.46,3.25,13.09,13.09,0,0,1-1.44,3,19.14,19.14,0,0,1-1.9,2.5,11.8,11.8,0,0,1,3.84.3,9.64,9.64,0,0,1,3.51,1.63,8.87,8.87,0,0,1,2.55,3,9.65,9.65,0,0,1,1,4.51,11.55,11.55,0,0,1-1.27,5.5,13.6,13.6,0,0,1-3.43,4.25,16.41,16.41,0,0,1-4.87,2.75,16.93,16.93,0,0,1-5.68,1,2.77,2.77,0,0,1-2-.74A1.11,1.11,0,0,1,13.83,43.43ZM13.4,27.62c.41,2,.81,4,1.18,6.09s.76,4.21,1.18,6.32h.3a12.94,12.94,0,0,0,3.65-.63,13.59,13.59,0,0,0,3.71-1.81,10.21,10.21,0,0,0,2.83-2.88,6.34,6.34,0,0,0,1-3.81,4.47,4.47,0,0,0-1.76-2.84,7.41,7.41,0,0,0-3.29-1.26,16.48,16.48,0,0,0-4.21,0c-1.55.2-3.09.47-4.62.82Z"/><path class="cls-1" d="M65.49,23.6c.2.5,0,1-.59,1.47A5.77,5.77,0,0,1,62,26c-2.25.31-4.55.65-6.91,1l-7.22,1.08Q47.79,32,48,35.79a32.45,32.45,0,0,0,4.18-.37c1.63-.25,3.29-.55,5-.91s3.34-.75,4.92-1.14l4-1a11.28,11.28,0,0,1,1.73-.35,5.43,5.43,0,0,1,1.61,0,2,2,0,0,1,1.18.55,1.74,1.74,0,0,1,.47,1.28c0,.15-.17.39-.52.68a10.91,10.91,0,0,1-1.31.95,16.8,16.8,0,0,1-1.65.92,12.24,12.24,0,0,1-1.54.65c-3.1,1-6.16,1.92-9.16,2.68A40.85,40.85,0,0,1,48.1,41a4.64,4.64,0,0,1-3.77-1.29,6,6,0,0,1-1.39-4c-.12-2.45-.15-4.94-.06-7.47a2.32,2.32,0,0,1-1.3-2.09,2.23,2.23,0,0,1,1.34-2c.09-1.46.15-2.93.19-4.41s.1-2.94.19-4.4a2.67,2.67,0,0,1-1.48-.82,2.11,2.11,0,0,1-.65-1.5,2.54,2.54,0,0,1,.29-1.24,2,2,0,0,1,1.12-.88c.9-.2,2-.44,3.31-.7s2.64-.5,4-.71,2.71-.4,4-.56,2.36-.28,3.27-.33a7.87,7.87,0,0,1,3,.27A6.8,6.8,0,0,1,63,10.59a1.3,1.3,0,0,1-.39,1.57,3.84,3.84,0,0,1-1.84.7L58,13.22c-1.05.13-2.14.28-3.27.44s-2.25.31-3.38.44-2.2.29-3.2.44c0,.12,0,.23,0,.34a1.32,1.32,0,0,1,0,.34c-.08,1.31-.15,2.62-.19,3.91L48,23.07q3.15-.55,6.47-1c2.21-.3,4-.49,5.25-.59a7,7,0,0,1,3.09.36A6.67,6.67,0,0,1,65.49,23.6Z"/><path class="cls-1" d="M104.79,23.3c.21.51,0,1-.59,1.48a5.88,5.88,0,0,1-2.85,1l-6.92,1c-2.35.34-4.76.7-7.21,1.08q-.12,3.84.06,7.67a30.76,30.76,0,0,0,4.18-.37c1.63-.24,3.29-.54,5-.91s3.34-.74,4.92-1.13l4-1a12.34,12.34,0,0,1,1.73-.36,6.27,6.27,0,0,1,1.62,0,2.13,2.13,0,0,1,1.18.56,1.74,1.74,0,0,1,.46,1.27c0,.15-.18.4-.52.68a10.16,10.16,0,0,1-1.31,1,17.86,17.86,0,0,1-1.65.93,16.14,16.14,0,0,1-1.54.65q-4.66,1.55-9.16,2.67a40.85,40.85,0,0,1-8.8,1.24,4.7,4.7,0,0,1-3.78-1.28,6,6,0,0,1-1.38-4q-.18-3.69-.06-7.45a2.34,2.34,0,0,1-1.3-2.1,2.23,2.23,0,0,1,1.34-2c.09-1.45.15-2.93.19-4.4s.1-2.95.18-4.41a2.62,2.62,0,0,1-1.47-.82,2.15,2.15,0,0,1-.65-1.5,2.54,2.54,0,0,1,.29-1.24,2,2,0,0,1,1.12-.88c.9-.2,2-.44,3.31-.7s2.65-.5,4-.71,2.7-.4,4-.56,2.36-.27,3.28-.33a7.68,7.68,0,0,1,3,.28,6.57,6.57,0,0,1,2.75,1.7,1.32,1.32,0,0,1-.39,1.58,4,4,0,0,1-1.84.69c-.75.11-1.66.23-2.71.36s-2.14.28-3.27.44-2.26.31-3.38.44-2.19.28-3.2.44a1.86,1.86,0,0,0,0,.34,2,2,0,0,1,0,.34c-.1,1.31-.16,2.62-.2,3.93l-.12,3.92c2.1-.37,4.25-.7,6.47-1s4-.5,5.26-.6a7.19,7.19,0,0,1,3.09.35A6.64,6.64,0,0,1,104.79,23.3Z"/><path class="cls-1" d="M123.34,12.13a2.48,2.48,0,0,1-2,.09,2.65,2.65,0,0,1-1.22-1,1.81,1.81,0,0,1-.31-1.57,2.46,2.46,0,0,1,1.27-1.45,17.35,17.35,0,0,1,4.35-1.65,16.72,16.72,0,0,1,5.64-.4,15.13,15.13,0,0,1,5.55,1.58,14.56,14.56,0,0,1,8,13.37,22.14,22.14,0,0,1-1.11,6,23.62,23.62,0,0,1-2.76,5.67,24.58,24.58,0,0,1-4.17,4.82A19.33,19.33,0,0,1,131.24,41a5.53,5.53,0,0,1-3.09.17,2.8,2.8,0,0,1-1.44-.89,2.47,2.47,0,0,1-.12-1,2,2,0,0,1,.79-1.33q-1-7.29-1.21-14.1t-.26-12.45A15.53,15.53,0,0,0,123.34,12.13Zm8.2-1.05c-.3-.05-.61-.08-.94-.11l-.94,0a5.49,5.49,0,0,1,.76,1.46,5.22,5.22,0,0,1,.32,1.7c0,3.06.09,6.34.19,9.86s.37,7.29.81,11.36a22.61,22.61,0,0,0,5.63-6.11,14.91,14.91,0,0,0,2.46-7.73,11.26,11.26,0,0,0-1.94-6.65A9.56,9.56,0,0,0,131.54,11.08Z"/><path class="cls-1" d="M185.34,37.71l-.23-1.18Q184,34.35,183,32.07c-.67-1.52-1.33-3.09-2-4.69a6.28,6.28,0,0,0,2.15-1.68,1.93,1.93,0,0,0,.13-2,1.7,1.7,0,0,0-1.44-1,8.45,8.45,0,0,0-1.88-.06,2.64,2.64,0,0,1-.4.12l-.41.12q-1.55-4.08-3-8.11c-.94-2.69-1.78-5.31-2.5-7.87-.42-.88-.76-1.58-1-2.06A9.65,9.65,0,0,0,172,3.75a1.26,1.26,0,0,0-.57-.45,2.07,2.07,0,0,0-.49-.07,2.73,2.73,0,0,0-1.05.24A3.39,3.39,0,0,0,169,4a1.39,1.39,0,0,0-1.73.69,91.77,91.77,0,0,0-4.32,8.58Q160.79,18,159,23t-3.08,10a73.79,73.79,0,0,0-1.88,9.54,2.52,2.52,0,0,0,.62,2.1,2,2,0,0,0,2.18.44A2.24,2.24,0,0,0,158.15,44a10.24,10.24,0,0,0,.95-2.3c.43-1.87.9-3.71,1.42-5.55s1-3.7,1.58-5.62q3.6-.18,7.33-.66t6.88-1.11c.72,1.7,1.47,3.39,2.27,5.06s1.62,3.34,2.48,5a7.67,7.67,0,0,0,.65,1,7.76,7.76,0,0,0,.95,1,5,5,0,0,0,1.1.79,1.2,1.2,0,0,0,1.09.06,1.22,1.22,0,0,0,.6-.9,6.07,6.07,0,0,0,.1-1.47A12,12,0,0,0,185.34,37.71ZM163.63,25.5a162,162,0,0,1,5.9-15.56,139.54,139.54,0,0,0,4.85,14.19A67,67,0,0,1,163.63,25.5Z"/><path class="cls-1" d="M209.83,24.37a27.79,27.79,0,0,0-.53,3.51c-.17,1.53-.3,3.14-.4,4.82s-.19,3.3-.29,4.85-.09,2.77-.09,3.62c0,1.45-.79,2.19-2.39,2.2a2.73,2.73,0,0,1-1.54-.44,1.86,1.86,0,0,1-.73-1.72q0-3.15.17-6.85t.53-7.61q-2.67-4.8-5-9.44t-3.94-8.55a8.39,8.39,0,0,1-.5-1.46A5.22,5.22,0,0,1,195,5.83a2.44,2.44,0,0,1,.33-1.18A1.5,1.5,0,0,1,196.34,4a5.19,5.19,0,0,1,1.62.1,2.42,2.42,0,0,1,1.4,1c.41,1,.92,2.24,1.53,3.59s1.26,2.73,1.92,4.13,1.32,2.74,2,4,1.25,2.36,1.76,3.26q3.34-4.52,6.37-9.3t5.61-9.08a3.25,3.25,0,0,1,2-1.68A2,2,0,0,1,223,1.63,2,2,0,0,1,223,2a3.51,3.51,0,0,1-.25,1.89q-1.26,2.26-2.93,5t-3.41,5.41L213,19.61Q211.26,22.25,209.83,24.37Z"/><path class="cls-1" d="M252.62,8.74a2,2,0,0,1-2.71.17A13.6,13.6,0,0,0,248.47,8a19.07,19.07,0,0,0-1.81-.92,15.59,15.59,0,0,0-2-.74A6.31,6.31,0,0,0,242.81,6a6.49,6.49,0,0,0-4.5,2.08,3.85,3.85,0,0,0-1.21,3.66A6.23,6.23,0,0,0,239.72,15c.91.65,1.9,1.3,3,2l3.14,2c1,.64,2,1.26,3,1.85l2.46,1.58a23,23,0,0,1,2.57,1.93,12.89,12.89,0,0,1,2.13,2.36,11,11,0,0,1,1.45,3A12.33,12.33,0,0,1,258,33.4,10.18,10.18,0,0,1,254.73,40a12.93,12.93,0,0,1-6.33,3.18,13.71,13.71,0,0,1-6.21-.17A10.58,10.58,0,0,1,237,39.9a5.23,5.23,0,0,1-.91-1.65,1.77,1.77,0,0,1-.09-1.51,2.47,2.47,0,0,1,1.57-1,2.26,2.26,0,0,1,1.73.1,10.55,10.55,0,0,0,4.09,2.26,9.12,9.12,0,0,0,4.89.07,6.2,6.2,0,0,0,3.15-1.72,5.51,5.51,0,0,0,1.46-2.83,5.31,5.31,0,0,0-.44-3.42,8.09,8.09,0,0,0-2.85-3.18A67.11,67.11,0,0,0,243,22.75a81.5,81.5,0,0,1-7.16-4.61,9.55,9.55,0,0,1-2.55-3.29,8.85,8.85,0,0,1-.81-3.54,8,8,0,0,1,.72-3.43,9.91,9.91,0,0,1,2.08-3,11.24,11.24,0,0,1,12.94-2,14.3,14.3,0,0,1,4.54,3.39,1.55,1.55,0,0,1,.35,1.13A2.31,2.31,0,0,1,252.62,8.74Z"/></g></g></g></svg>